# Blender 4.0.2
# www.blender.org
mtllib hat.mtl
o Cube
v 0.309093 1.323956 -0.326422
v 0.309093 0.662275 -0.326422
v 0.309093 1.323956 0.613778
v 0.315658 0.672477 0.638945
v -0.648559 1.323956 -0.326422
v -0.648559 0.662275 -0.326422
v -0.648559 1.323956 0.613778
v -0.641993 0.672477 0.638945
v -0.648559 1.293962 -0.326422
v -0.648559 1.293962 0.613778
v 0.309093 1.293962 -0.326422
v 0.309093 1.293962 0.613778
v 0.304084 0.668526 1.167411
v -0.653568 0.668526 1.167411
vn -0.0000 1.0000 -0.0000
vn -0.0000 0.0386 0.9993
vn -1.0000 -0.0049 0.0035
vn 1.0000 0.0049 -0.0035
vn -0.0000 -0.0000 -1.0000
vn -0.0000 1.0000 0.0075
vt 0.625000 0.500000
vt 0.875000 0.500000
vt 0.875000 0.750000
vt 0.625000 0.750000
vt 0.375000 0.750000
vt 0.625000 1.000000
vt 0.375000 1.000000
vt 0.375000 0.000000
vt 0.625000 0.000000
vt 0.625000 0.250000
vt 0.375000 0.250000
vt 0.375000 0.500000
s 0
usemtl Material
f 1/1/1 5/2/1 7/3/1 3/4/1
f 4/5/2 3/4/2 7/6/2 8/7/2
f 8/8/3 7/9/3 5/10/3 6/11/3
f 2/12/4 1/1/4 3/4/4 4/5/4
f 6/11/5 5/10/5 1/1/5 2/12/5
f 4/5/6 8/7/6 14/7/6 13/5/6
l 8 10
l 12 4
l 6 9
l 11 2
